<?xml version="1.0" encoding="utf-8"?>
<!-- Generator: Adobe Illustrator 24.3.0, SVG Export Plug-In . SVG Version: 6.00 Build 0)  -->
<svg version="1.1" baseProfile="tiny" id="Layer_1" xmlns="http://www.w3.org/2000/svg" xmlns:xlink="http://www.w3.org/1999/xlink"
	 x="0px" y="0px" viewBox="0 0 68.78 49.61" overflow="visible" xml:space="preserve">
<path fill="#4370B7" d="M39.64,42.67c0.1,0.15,0.15,0.34,0.15,0.54c0,0.21-0.05,0.39-0.15,0.54l-4.79,4.79
	c-0.21,0.1-0.39,0.15-0.54,0.15s-0.34-0.05-0.54-0.15l-4.79-4.79c-0.1-0.15-0.15-0.33-0.15-0.54c0-0.21,0.05-0.39,0.15-0.54
	c1.54-1.44,3.32-2.16,5.33-2.16S38.09,41.23,39.64,42.67z"/>
<path fill="none" stroke="#4370B7" stroke-miterlimit="10" d="M67.99,14.78c0.1,0.1,0.16,0.25,0.16,0.43c0,0.18-0.08,0.35-0.23,0.5
	l-4.94,4.94c-0.1,0.1-0.25,0.15-0.42,0.15c-0.18,0-0.38-0.05-0.58-0.15c-3.71-3.71-7.94-6.55-12.71-8.54
	c-4.76-1.98-9.75-2.97-14.95-2.97c-5.2,0-10.18,0.99-14.95,2.97c-4.76,1.98-8.97,4.83-12.63,8.54c-0.21,0.1-0.39,0.15-0.54,0.15
	H5.88c-0.21-0.1-0.36-0.26-0.46-0.46l-4.56-4.56c-0.15-0.15-0.26-0.26-0.31-0.31v-0.31c0-0.15,0.05-0.33,0.15-0.54
	c4.48-4.48,9.62-7.92,15.41-10.31c5.79-2.39,11.86-3.59,18.19-3.59s12.4,1.2,18.19,3.59c5.79,2.4,10.93,5.83,15.41,10.31
	L67.99,14.78z"/>
<path fill="none" stroke="#4370B7" stroke-miterlimit="10" d="M47.48,16.33c4.2,1.75,7.94,4.25,11.24,7.49
	c0.15,0.15,0.23,0.34,0.23,0.54c0,0.21-0.08,0.39-0.23,0.54l-4.94,4.87C53.72,29.92,53.58,30,53.35,30s-0.42-0.08-0.58-0.23
	c-2.47-2.47-5.3-4.36-8.5-5.68c-3.19-1.31-6.52-1.97-9.96-1.97c-3.45,0-6.77,0.66-9.96,1.97c-3.19,1.31-6.03,3.21-8.5,5.68
	C15.79,29.92,15.65,30,15.42,30s-0.42-0.08-0.58-0.23L9.89,24.9c-0.1-0.15-0.15-0.33-0.15-0.54c0-0.21,0.05-0.39,0.15-0.54
	c3.29-3.24,7.04-5.74,11.24-7.49c4.2-1.75,8.59-2.63,13.17-2.63C38.89,13.7,43.28,14.58,47.48,16.33z"/>
<path fill="none" stroke="#4370B7" stroke-miterlimit="10" d="M42.49,28.38c2.63,1.08,4.97,2.63,7.03,4.63
	c0.16,0.15,0.23,0.34,0.23,0.54c0,0.21-0.08,0.39-0.23,0.54l-4.87,4.87c-0.15,0.15-0.34,0.23-0.54,0.23c-0.21,0-0.39-0.08-0.54-0.23
	c-1.24-1.24-2.65-2.19-4.25-2.86c-1.6-0.67-3.27-1-5.02-1c-1.75,0-3.43,0.34-5.02,1c-1.6,0.67-3.01,1.62-4.25,2.86
	c-0.16,0.15-0.34,0.23-0.54,0.23c-0.21,0-0.36-0.08-0.46-0.23l-4.94-4.87c-0.16-0.15-0.23-0.33-0.23-0.54
	c0-0.21,0.08-0.39,0.23-0.54c2.06-2.01,4.4-3.55,7.03-4.63s5.36-1.62,8.19-1.62C37.14,26.76,39.87,27.3,42.49,28.38z"/>
<g display="none">
	<path display="inline" fill="#ED1F24" d="M33.59,22.2h11.49L28.83,43.73l-0.09-0.05l5.92-16.2l-11.13,0.49L40,4.43l0.09,0.05
		l-1.75,4.71C36.25,14.96,34.66,19.3,33.59,22.2z"/>
</g>
</svg>
